<?xml version="1.0" encoding="UTF-8" standalone="no"?>
<!-- Created with Inkscape (http://www.inkscape.org/) -->

<svg
   width="186.24211mm"
   height="216.25645mm"
   viewBox="0 0 186.24211 216.25645"
   version="1.1"
   id="svg1"
   xml:space="preserve"
   xmlns="http://www.w3.org/2000/svg"
   xmlns:svg="http://www.w3.org/2000/svg"><defs
     id="defs1" /><g
     id="layer1"
     transform="translate(-22.010628,-24.703877)"><path
       style="fill:#ff6600;stroke-width:0.240076"
       d="m 51.919141,240.74824 c -0.665111,-0.10519 -1.46749,-0.26147 -1.783069,-0.34731 -0.796126,-0.21655 -2.107664,-1.51827 -2.765484,-2.7448 -0.696774,-1.29916 -0.750149,-2.5747 -1.056268,-25.24284 -0.166634,-12.33911 -0.300474,-16.88404 -0.511041,-17.35382 -0.335747,-0.74903 -4.215978,-3.03507 -11.585622,-6.82565 -9.89437,-5.08918 -10.312696,-5.3597 -11.198774,-7.24191 -0.816341,-1.73408 -0.979571,-4.51726 -1.002328,-17.09031 -0.0212,-11.71075 -0.01012,-12.02332 0.465836,-13.13825 0.948435,-2.22173 1.477477,-2.57226 15.163012,-10.04657 7.105243,-3.88051 13.054556,-7.09183 13.220693,-7.13627 0.175059,-0.0468 0.30207,-0.43758 0.30207,-0.92932 0,-0.73272 -0.16522,-0.98204 -1.21075,-1.82709 -1.671858,-1.35128 -2.372714,-2.21085 -2.943817,-3.61046 -0.445575,-1.09198 -0.508299,-1.88635 -0.700548,-8.87216 -0.261704,-9.50956 0.104713,-41.311223 0.497171,-43.150053 0.210987,-0.98854 0.532849,-1.5293 1.596035,-2.68147 1.166502,-1.26412 1.94274,-1.76628 6.255632,-4.04683 2.708129,-1.432 9.645809,-5.10373 15.417049,-8.15942 10.92705,-5.78552 13.1703,-6.8756 14.81383,-7.1986 2.1689,-0.42625 3.323888,0.0869 19.317812,8.58253 6.02492,3.20031 11.76818,6.22132 12.7628,6.71335 2.73904,1.35497 5.77607,3.30957 6.96218,4.48079 l 1.06206,1.04871 0.21507,2.37424 c 0.25774,2.84525 0.58769,49.211973 0.35956,50.528033 -0.19718,1.13753 -1.6618,2.95172 -3.67799,4.55582 -3.90788,3.10918 -2.64002,4.07673 9.87531,7.5362 5.88434,1.62655 6.7201,1.66658 9.14296,0.4379 0.83842,-0.42519 3.84618,-2.28856 6.68389,-4.14084 2.83772,-1.85229 6.45672,-4.1874 8.04223,-5.18916 3.93427,-2.48574 4.78821,-3.17689 5.05796,-4.09368 0.12541,-0.42623 0.38602,-3.02424 0.57912,-5.77336 0.26818,-3.81779 0.43251,-5.06294 0.69574,-5.27171 0.43609,-0.34583 6.53414,-0.60328 9.07216,-0.38301 1.30709,0.11344 1.98222,0.28341 2.12969,0.53617 0.40666,0.69692 0.35947,16.28927 -0.0529,17.48959 -0.62652,1.82356 -2.4371,3.18878 -13.1,9.87766 -3.23443,2.02898 -8.16391,5.15262 -10.9544,6.94141 -6.69292,4.29038 -7.64184,4.76583 -9.45237,4.73607 -0.78128,-0.0128 -3.78118,-0.48844 -6.66644,-1.05689 -2.88526,-0.56846 -5.57591,-0.99891 -5.97921,-0.95656 -0.71069,0.0746 -0.73895,0.1232 -0.91737,1.57652 -0.10125,0.82474 -0.15314,4.16152 -0.11531,7.41507 0.0675,5.80678 0.0787,5.92699 0.60774,6.53716 0.75163,0.86691 2.36395,1.74634 8.33988,4.54893 5.72842,2.68652 11.52578,5.74417 13.0602,6.88823 0.54656,0.40751 1.26505,1.1264 1.59664,1.59753 1.36043,1.93289 1.3149,0.8979 1.27029,28.87014 l -0.0408,25.61679 -0.59455,1.43639 c -0.6866,1.65875 -2.12533,3.21567 -3.43425,3.71636 -1.24508,0.47631 -33.83695,0.5131 -35.26533,0.0398 -1.36973,-0.45385 -3.09471,-2.21874 -3.36529,-3.44314 -0.12149,-0.54983 -0.31522,-7.84694 -0.4305,-16.21578 -0.13689,-9.93871 -0.29309,-15.30661 -0.45035,-15.47703 -0.26541,-0.28762 -2.17293,0.0267 -9.014464,1.4853 -5.17163,1.10261 -5.60383,1.2338 -6.12651,1.85969 -0.40763,0.48812 -0.44931,1.36604 -0.6794,14.30895 -0.27127,15.25911 -0.19173,14.55914 -1.83156,16.11942 -1.38729,1.31999 -2.508718,1.51289 -10.388608,1.78685 -8.19765,0.28503 -25.47316,0.28671 -27.269257,0.003 z m 27.096287,-13.81913 c 0.22296,-0.15638 0.28828,-2.54189 0.28828,-10.52851 0,-8.82037 -0.0499,-10.37116 -0.34193,-10.63384 -0.18807,-0.16914 -1.82258,-1.00948 -3.63226,-1.86742 -1.80967,-0.85795 -5.67723,-2.71778 -8.59456,-4.13297 -3.43621,-1.6669 -5.68598,-2.61507 -6.3882,-2.69234 -1.03431,-0.1138 -1.09241,-0.0864 -1.26841,0.59861 -0.10144,0.39484 -0.18444,7.053 -0.18444,14.79591 0,13.78788 0.01,14.08565 0.46124,14.44862 0.39387,0.31648 1.8423,0.35917 9.91662,0.29237 5.20047,-0.0431 9.58511,-0.16921 9.74366,-0.28043 z m 59.019582,-0.006 c 0.10554,-0.11446 0.22384,-7.79993 0.26289,-17.07884 0.0794,-18.85909 0.14228,-18.07672 -1.45371,-18.07672 -0.80597,0 -10.79018,3.78763 -14.40309,5.46398 -1.72907,0.80228 -1.98593,1.00392 -2.11562,1.66082 -0.19269,0.97601 -0.24099,25.45187 -0.0526,26.68685 0.25579,1.67741 0.29313,1.68379 9.4599,1.61387 4.46071,-0.0341 8.19674,-0.15551 8.30229,-0.26996 z M 91.616706,194.65277 c 10.036394,-2.35153 16.064424,-4.37917 25.102634,-8.4437 6.2286,-2.80103 7.76679,-3.72991 7.48665,-4.52104 -0.0817,-0.23065 -1.63041,-1.20499 -3.44165,-2.16521 -5.06246,-2.68384 -5.52207,-3.01277 -6.25848,-4.47903 -0.93233,-1.85636 -1.05347,-3.89649 -1.26997,-21.38899 -0.10377,-8.38481 -0.26813,-15.44191 -0.36522,-15.68246 -0.49036,-1.21486 -2.54485,-0.38976 -15.226604,6.11509 -5.07025,2.60068 -9.72251,4.85456 -10.33837,5.00861 -1.757468,0.43963 -3.000038,0.014 -10.828668,-3.70877 -9.15223,-4.35225 -9.35534,-4.42927 -11.21842,-4.25406 -1.13629,0.10686 -1.98624,0.41363 -3.68991,1.33182 l -2.21355,1.19298 -0.17762,1.49952 c -0.0977,0.82474 -0.14959,9.18757 -0.11531,18.58406 l 0.0623,17.08456 0.74063,0.65975 c 0.40734,0.36287 1.91213,1.20932 3.34397,1.88101 6.73763,3.16067 9.79932,4.69011 16.3252,8.15509 8.064658,4.28201 7.639288,4.17179 12.082378,3.13077 z m -45.64035,-16.06838 c 0.23261,-0.62886 0.447752,-22.55216 0.244321,-24.8968 l -0.170638,-1.96666 -0.957879,0.1252 c -0.663475,0.0867 -2.34005,0.98643 -5.454952,2.92734 -2.473391,1.54117 -4.626797,2.91781 -4.785348,3.05918 -0.219028,0.1953 -0.288274,2.07138 -0.288274,7.81025 0,7.34014 0.01357,7.56653 0.481175,8.02513 0.758409,0.74378 9.482593,5.33193 10.160288,5.3434 0.371518,0.007 0.672702,-0.16046 0.771307,-0.42704 z m 33.726542,-47.48476 c 0.0975,-0.378 0.17735,-7.7543 0.17735,-16.39178 V 99.003337 l -0.57654,-0.50858 c -0.97932,-0.86387 -19.43461,-10.72006 -19.92699,-10.64215 -0.26629,0.0421 -0.53182,0.33955 -0.62333,0.69819 -0.20687,0.81072 -0.25217,26.585113 -0.0529,30.114033 l 0.15248,2.70063 8.55339,4.52467 c 4.70437,2.48856 9.12418,4.82654 9.82181,5.19552 1.68317,0.89022 2.24781,0.89341 2.47476,0.014 z m 21.290692,-3.05886 c 3.60853,-1.82541 7.77172,-3.97474 9.25155,-4.77629 l 2.69057,-1.45735 0.14831,-1.5705 c 0.0816,-0.86378 0.11615,-8.40683 0.0768,-16.76234 -0.0789,-16.768103 0.0154,-15.814783 -1.53976,-15.568333 -0.64274,0.10186 -6.85901,3.59817 -17.668204,9.93738 -1.82248,1.06882 -1.84183,1.09057 -2.02496,2.277203 -0.10169,0.65895 -0.15578,7.81132 -0.12019,15.89416 0.0726,16.48803 -0.0166,15.66766 1.68164,15.46022 0.55129,-0.0673 3.66956,-1.49435 7.504194,-3.43415 z M 87.105688,86.441417 c 2.251988,-0.86104 15.967842,-8.09934 16.690592,-8.80817 0.22786,-0.22347 0.4143,-0.66957 0.4143,-0.99133 0,-0.51297 -0.6486,-0.93672 -5.266254,-3.44058 -7.55699,-4.09769 -12.170748,-6.39356 -12.848448,-6.39356 -0.76158,0 -3.80281,1.40921 -10.25146,4.75019 -2.85391,1.47858 -5.72637,2.93695 -6.38324,3.24082 -1.48783,0.68827 -1.97576,1.25215 -1.87868,2.17112 0.0695,0.65745 0.46324,0.91777 5.37918,3.55603 8.23866,4.42148 11.93854,6.26281 12.5974,6.26938 0.33287,0.003 1.02884,-0.15593 1.54661,-0.3539 z"
       id="path27" /><path
       style="fill:#ffcc00;stroke-width:0.240076"
       d="m 161.26334,104.79025 c -2.18462,-0.24963 -2.8784,-0.771 -3.4071,-2.56041 -0.0717,-0.24279 -0.2923,-2.323373 -0.49014,-4.623523 -0.19784,-2.30015 -0.52057,-4.80064 -0.71718,-5.55664 -0.1966,-0.75601 -1.27061,-3.11775 -2.38668,-5.24832 -2.4656,-4.70681 -3.91604,-7.83743 -4.63159,-9.99679 -0.46945,-1.41668 -0.5371,-2.07204 -0.52888,-5.12335 0.009,-3.19822 0.0633,-3.64921 0.63648,-5.24832 2.32993,-6.50029 6.90233,-11.59355 12.01181,-13.38014 2.44337,-0.85435 7.33098,-0.98177 10.11558,-0.2637 5.90404,1.52247 10.02833,5.98704 11.7959,12.76912 0.84231,3.23191 1.05027,8.2719 0.46033,11.15659 -0.73554,3.59667 -2.27203,7.11123 -5.3616,12.26408 -1.58444,2.64257 -2.05879,4.64765 -2.32284,9.81871 -0.1308,2.561433 -0.3076,4.064313 -0.52188,4.436153 -0.4811,0.83482 -1.59755,1.3052 -3.72798,1.57067 -2.18013,0.27166 -8.49469,0.26349 -10.92423,-0.0141 z"
       id="path28" /><path
       style="fill:#ffcc00;stroke-width:0.240076"
       d="m 186.17777,51.708027 c -0.39037,-0.18421 -1.03899,-0.76775 -1.44137,-1.29676 -0.62197,-0.81771 -0.73159,-1.16421 -0.73159,-2.31243 0,-0.92782 0.14881,-1.61154 0.47541,-2.18421 0.26147,-0.45848 2.27497,-2.681561 4.47444,-4.94017 4.18615,-4.298709 4.65427,-4.619898 6.25814,-4.29383 0.90228,0.183436 2.26013,1.371074 2.75625,2.410747 0.42781,0.896536 0.4273,2.304111 -0.001,3.202006 -0.48509,1.016576 -8.17612,9.024677 -9.05501,9.428317 -0.92453,0.42459 -1.81576,0.42014 -2.7351,-0.0137 z"
       id="path29" /><path
       style="fill:#ffcc00;stroke-width:0.240076"
       d="m 194.19953,75.280047 c -2.13689,-1.16087 -2.54027,-4.30492 -0.80522,-6.27598 0.92736,-1.0535 2.32226,-1.26289 7.67979,-1.15278 5.28311,0.10857 5.7796,0.2439 6.67869,1.82041 0.35931,0.63004 0.49997,1.27621 0.49997,2.29679 0,1.52981 -0.34064,2.2533 -1.50487,3.19616 -0.59436,0.48135 -0.99582,0.51983 -6.09715,0.58434 -5.19777,0.0657 -5.50862,0.0431 -6.45121,-0.46894 z"
       id="path30" /><path
       style="fill:#ffcc00;stroke-width:0.240076"
       d="m 165.04292,42.279454 c -1.59926,-1.031906 -1.68691,-1.502606 -1.615,-8.673247 0.0708,-7.056337 0.12276,-7.328665 1.58654,-8.309041 1.84199,-1.233686 4.20392,-0.476651 5.1549,1.652227 0.47299,1.058838 0.4922,1.389193 0.41995,7.220483 -0.0831,6.703642 -0.0887,6.731165 -1.63709,7.983944 -0.93548,0.75689 -2.8363,0.817978 -3.9093,0.125634 z"
       id="path31" /><path
       style="fill:#ffcc00;stroke-width:0.240076"
       d="m 145.3761,52.077717 c -0.62218,-0.27387 -5.57511,-5.42019 -7.53268,-7.826782 -1.47719,-1.81603 -1.57678,-2.013589 -1.57678,-3.127896 0,-1.613419 0.62404,-2.784139 1.86925,-3.506788 0.7628,-0.442687 1.259,-0.559629 2.00604,-0.472771 0.85815,0.09978 1.23209,0.364714 2.76144,1.956504 3.37386,3.5116 6.72694,7.541573 6.98794,8.398593 0.83965,2.75706 -2.03396,5.67135 -4.51521,4.57914 z"
       id="path32" /></g></svg>
